<svg xmlns="http://www.w3.org/2000/svg" viewBox="0 0 41.86 41.77"><defs><style>.cls-1{fill:#fff;}</style></defs><title>epitech-logo-header-petit-blanc</title><g id="Capa_2" data-name="Capa 2"><g id="Capa_1-2" data-name="Capa 1"><path class="cls-1" d="M3.19,20.07,3.26,20a3.82,3.82,0,0,0,1.12-2.7V2.52A1.37,1.37,0,0,1,5.75,1.15H7.34V0H3.74A2.17,2.17,0,0,0,1.57,2.16V17.82a3.5,3.5,0,0,1-.92,2.36L0,20.89H0l.65.7A3.51,3.51,0,0,1,1.57,24V39.61a2.17,2.17,0,0,0,2.17,2.16h3.6V40.62H5.75a1.37,1.37,0,0,1-1.37-1.37V24.47a3.82,3.82,0,0,0-1.12-2.7l-.07-.07a2.8,2.8,0,0,0-1.61-.79s0,0,0,0,0,0,0,0A2.8,2.8,0,0,0,3.19,20.07Z"/><path class="cls-1" d="M38.68,20.07,38.6,20a3.86,3.86,0,0,1-1.12-2.7V2.52a1.36,1.36,0,0,0-1.36-1.37H34.53V0h3.59a2.17,2.17,0,0,1,2.17,2.16V17.82a3.5,3.5,0,0,0,.92,2.36l.65.71h0l-.65.7A3.51,3.51,0,0,0,40.29,24V39.61a2.17,2.17,0,0,1-2.17,2.16H34.53V40.62h1.59a1.36,1.36,0,0,0,1.36-1.37V24.47a3.86,3.86,0,0,1,1.12-2.7l.08-.07a2.74,2.74,0,0,1,1.61-.79l0,0s0,0,0,0A2.74,2.74,0,0,1,38.68,20.07Z"/><path class="cls-1" d="M33.23,35.57V29.28H17.58a2.06,2.06,0,0,1-1.67-.79,3.19,3.19,0,0,1-.59-1.92A3.68,3.68,0,0,1,15.71,25a2.17,2.17,0,0,1,1-1H33.23V17.66H17.58a2,2,0,0,1-1.67-.74,2.9,2.9,0,0,1-.59-1.82,3.07,3.07,0,0,1,.59-1.87,2.07,2.07,0,0,1,1.67-.83H33.23V6.2H16.5A7.06,7.06,0,0,0,10.6,9a9.6,9.6,0,0,0-2,6.15,9.93,9.93,0,0,0,1.62,5.66,10.16,10.16,0,0,0-1.62,5.76,9.63,9.63,0,0,0,2,6.2,7.06,7.06,0,0,0,5.9,2.8Z"/></g></g></svg>