<?xml version="1.0" encoding="UTF-8" standalone="no"?>
<svg
   xmlns:dc="http://purl.org/dc/elements/1.1/"
   xmlns:cc="http://creativecommons.org/ns#"
   xmlns:rdf="http://www.w3.org/1999/02/22-rdf-syntax-ns#"
   xmlns:svg="http://www.w3.org/2000/svg"
   xmlns="http://www.w3.org/2000/svg"
   width="1430.5"
   height="705.75"
   version="1.0"
   xml:space="preserve"
   id="svg499"><metadata
     id="metadata2"><rdf:RDF><cc:Work
         rdf:about=""><dc:format>image/svg+xml</dc:format><dc:type
           rdf:resource="http://purl.org/dc/dcmitype/StillImage" /><dc:title></dc:title></cc:Work></rdf:RDF></metadata><defs
     id="defs7"><clipPath
       id="clipPath10970"><path
         d="m110.01 672.01v-212.94c19.449-0.097 125.3 0.036 125.3 0.036v3.53h-15.561v10.909h7.219v-2.727h17.327v-3.691h-2.727v-3.368h4.332l4.011-3.21-0.642-3.048h21.659v8.825h5.616v-5.135h10.268v7.221h7.54v-5.295h6.146v6.738l8.884 7.664h3.261v-5.802h4.973v5.642l3.37 2.123h9.947l-2.567-4.012h-3.691v-2.887h5.616l4.813 6.417h7.22v-3.368l-8.664-8.505-1.764 2.087h-5.295v-2.087h4.011v-3.208h-16.525v3.208h-4.653v-2.245h1.925l0.161-1.605-6.9-8.664h-9.465l-8.824-7.701h-24.868l-18.291-9.627 2.888-5.295 16.044 8.985h26.954l8.664 7.862h8.343l9.466 8.984h14.92s1.123 1.766 3.37 1.445c2.245-0.321 7.059 0.481 8.342 1.925 1.284 1.445 3.691 2.407 4.653 2.407 0.963 0 4.493-0.321 7.06 3.209 2.566 3.53 5.936 8.985 13.637 8.985h4.652v-4.974h2.247v4.652s1.443 1.926 2.567 0.963c1.123-0.963 0.963-1.925 2.728-0.641 1.764 1.283 3.69 2.086 3.85 0.641 0.16-1.443 0-3.208 0-3.208h-3.369v-2.247h3.369v-3.209h-10.91v-1.925h15.402v12.194h40.752s4.331-1.444 12.834-1.444h19.253v18.175h3.69v-18.175h76.321v195.42h-430.89z"
         id="path4" /></clipPath></defs><g
     transform="matrix(1.25,0,0,-1.25,-134.36875,2222.1287)"
     id="g13"><path
       d="m 840.68,1452.6 c 0,-3.523 -2.855,-6.379 -6.379,-6.379 -3.521,0 -6.377,2.856 -6.377,6.379 0,3.523 2.856,6.379 6.377,6.379 3.524,0 6.379,-2.856 6.379,-6.379"
       style="fill:#bdbcbc"
       id="path9" /><path
       d="m 839.26,1452.6 c 0,-2.75 -2.229,-4.977 -4.979,-4.977 -2.748,0 -4.976,2.227 -4.976,4.977 0,2.75 2.228,4.977 4.976,4.977 2.75,0 4.979,-2.227 4.979,-4.977"
       style="fill:#ffffff"
       id="path11" /></g><path
     d="m 540.485,152.2 h 3.54375 v 21.26 H 540.485 Z"
     style="fill:#008d78;stroke-width:1.25"
     id="path15" /><path
     d="m 278.86,99.45 h 3.54375 v 21.26 H 278.86 Z"
     style="fill:#008d78;stroke-width:1.25"
     id="path17" /><path
     d="m 1090.06,404.325 5.01,-5.01 2.5063,2.50625 -5.01,5.00875 z"
     style="fill:#008d78;stroke-width:1.25"
     id="path19" /><path
     d="m 1180.56,494.825 5.01,-5.01 2.5063,2.50625 -5.01,5.00875 z"
     style="fill:#008d78;stroke-width:1.25"
     id="path21" /><path
     d="m 1228.06,542.2 5.01,-5.01 2.5063,2.50625 -5.01,5.00875 z"
     style="fill:#008d78;stroke-width:1.25"
     id="path23" /><path
     d="m 1284.435,588.7 -15.0325,15.0325 -2.5075,-2.50625 15.0337,-15.0325 z"
     style="fill:#008d78;stroke-width:1.25"
     id="path25" /><path
     d="m 337.66,119.95 v -7.085 h 3.54375 v 7.085 z"
     style="fill:#008d78;stroke-width:1.25"
     id="path27" /><path
     d="m 386.435,307.325 h 7.085 v 3.54375 h -7.085 z"
     style="fill:#008d78;stroke-width:1.25"
     id="path29" /><path
     d="m 386.31,349.825 h 7.085 v 3.54375 h -7.085 z"
     style="fill:#008d78;stroke-width:1.25"
     id="path31" /><path
     d="m 441.7975,387.575 5.01,5.01 -2.50625,2.50625 -5.00875,-5.01 z"
     style="fill:#008d78;stroke-width:1.25"
     id="path33" /><path
     d="m 483.6225,345.575 5.01,5.01 -2.50625,2.50625 -5.00875,-5.01 z"
     style="fill:#008d78;stroke-width:1.25"
     id="path35" /><path
     d="m 556.4475,148.45 5.0075,-5.01 2.50875,2.50625 -5.01,5.01 z"
     style="fill:#008d78;stroke-width:1.25"
     id="path37" /><path
     d="m 552.51,304.95 v 7.085 l -3.54375,10e-4 v -7.085 z"
     style="fill:#008d78;stroke-width:1.25"
     id="path39" /><path
     d="m 601.9475,291.575 v 7.085 l -3.54375,10e-4 v -7.085 z"
     style="fill:#008d78;stroke-width:1.25"
     id="path41" /><path
     d="m 458.2975,106.7 v -7.085 l 3.54375,-0.0012 v 7.085 z"
     style="fill:#008d78;stroke-width:1.25"
     id="path43" /><path
     d="m 396.26,257.2 5.01,5.01 -2.50625,2.505 -5.00875,-5.01 z"
     style="fill:#008d78;stroke-width:1.25"
     id="path45" /><path
     d="m 406.7225,119.95 v -7.08375 l 3.54375,-10e-4 v 7.085 z"
     style="fill:#008d78;stroke-width:1.25"
     id="path47" /><path
     d="m 652.135,347.95 5.01,-5.01 2.50625,2.50625 -5.01,5.00875 z"
     style="fill:#008d78;stroke-width:1.25"
     id="path49" /><path
     d="m 637.5975,314.2 5.01,-5.01 2.50625,2.50625 -5.01,5.00875 z"
     style="fill:#008d78;stroke-width:1.25"
     id="path51" /><path
     d="m 695.5975,390.95 5.01,-5.01 2.50625,2.50625 -5.01,5.00875 z"
     style="fill:#008d78;stroke-width:1.25"
     id="path53" /><path
     d="m 738.7225,434.075 5.01,-5.01 2.50625,2.50625 -5.01,5.00875 z"
     style="fill:#008d78;stroke-width:1.25"
     id="path55" /><path
     d="m 427.985,244.575 5.01,5.01 -2.50625,2.505 -5.01,-5.01 z"
     style="fill:#008d78;stroke-width:1.25"
     id="path57" /><path
     d="m 457.085,195.95 5.01,5.01 -2.50625,2.505 -5.01,-5.01 z"
     style="fill:#008d78;stroke-width:1.25"
     id="path59" /><path
     d="m 914.7725,414.825 -5.00875,-5.00875 2.505,-2.50625 5.01,5.01 z"
     style="fill:#008d78;stroke-width:1.25"
     id="path61" /><g
     transform="matrix(1.25,0,0,-1.25,-238.69,2285.7)"
     id="g91"><path
       d="m 625.12,1698.7 -23.917,0.036 c -5.083,0 -7.734,-1.932 -11.984,-6.182 -15.412,-15.41 -76.706,-76.706 -77.614,-77.614 -2.155,-2.155 -3.395,-5.186 -3.396,-8.365 -0.005,-20.455 -0.024,-76.06 -0.024,-104.61 0,-3.294 3.314,-6.16 5.909,-6.16 0.91,0 -1.429,0.018 -0.406,0.018 3.161,0 5.142,0.848 8.027,3.733 17.97,17.97 68.051,67.986 82.301,82.236 2.985,2.984 7.229,5.345 10.958,5.345 h 17.473"
       style="fill:none;stroke:#008d78;stroke-width:5.638;stroke-miterlimit:3.864"
       id="path63" /><path
       d="m 1211.8,1352.6 -216.53,216.57 c -4.011,4.01 -7.71,3.729 -12.168,-0.73 l -122.67,-122.67 c -3.249,-3.249 -5.406,-4.19 -9.656,-4.19 l -12.464,0.01 c -3.417,0 -6.047,0.778 -9.88,4.612 -22.043,22.042 -136.71,136.7 -137.12,137.12 -1.803,1.802 -4.746,3.805 -8.746,3.805 H 629.39 c -6.334,0 -10.219,10.031 -3.483,16.766 1.648,1.648 32.787,32.788 45.626,45.627 7.649,7.648 6.418,15.337 -0.773,22.528 -1.416,1.416 -62.021,62.029 -64.418,64.425 -2.396,2.397 -5.205,4.432 -12.58,4.432 h -177.98"
       style="fill:none;stroke:#008d78;stroke-width:5.669;stroke-miterlimit:3.864"
       id="path65" /><g
       transform="translate(-951.02,647.28)"
       id="g71"><path
         d="m 1465.9,848.77 c 0,-3.523 -2.855,-6.379 -6.379,-6.379 -3.521,0 -6.377,2.856 -6.377,6.379 0,3.523 2.856,6.379 6.377,6.379 3.524,0 6.379,-2.856 6.379,-6.379"
         style="fill:#231f20"
         id="path67" /><path
         d="m 1464.5,848.76 c 0,-2.75 -2.229,-4.977 -4.979,-4.977 -2.748,0 -4.976,2.227 -4.976,4.977 0,2.75 2.228,4.977 4.976,4.977 2.75,0 4.979,-2.227 4.979,-4.977"
         style="fill:#ffffff"
         id="path69" /></g><g
       transform="translate(-477.07,718.27)"
       id="g77"><path
         d="m 1465.9,848.77 c 0,-3.523 -2.855,-6.379 -6.379,-6.379 -3.521,0 -6.377,2.856 -6.377,6.379 0,3.523 2.856,6.379 6.377,6.379 3.524,0 6.379,-2.856 6.379,-6.379"
         style="fill:#231f20"
         id="path73" /><path
         d="m 1464.5,848.76 c 0,-2.75 -2.229,-4.977 -4.979,-4.977 -2.748,0 -4.976,2.227 -4.976,4.977 0,2.75 2.228,4.977 4.976,4.977 2.75,0 4.979,-2.227 4.979,-4.977"
         style="fill:#ffffff"
         id="path75" /></g><g
       transform="translate(-429.46,684.89)"
       id="g83"><path
         d="m 1465.9,848.77 c 0,-3.523 -2.855,-6.379 -6.379,-6.379 -3.521,0 -6.377,2.856 -6.377,6.379 0,3.523 2.856,6.379 6.377,6.379 3.524,0 6.379,-2.856 6.379,-6.379"
         style="fill:#231f20"
         id="path79" /><path
         d="m 1464.5,848.76 c 0,-2.75 -2.229,-4.977 -4.979,-4.977 -2.748,0 -4.976,2.227 -4.976,4.977 0,2.75 2.228,4.977 4.976,4.977 2.75,0 4.979,-2.227 4.979,-4.977"
         style="fill:#ffffff"
         id="path81" /></g><g
       transform="translate(-362.05,617.65)"
       id="g89"><path
         d="m 1465.9,848.77 c 0,-3.523 -2.855,-6.379 -6.379,-6.379 -3.521,0 -6.377,2.856 -6.377,6.379 0,3.523 2.856,6.379 6.377,6.379 3.524,0 6.379,-2.856 6.379,-6.379"
         style="fill:#231f20"
         id="path85" /><path
         d="m 1464.5,848.76 c 0,-2.75 -2.229,-4.977 -4.979,-4.977 -2.748,0 -4.976,2.227 -4.976,4.977 0,2.75 2.228,4.977 4.976,4.977 2.75,0 4.979,-2.227 4.979,-4.977"
         style="fill:#ffffff"
         id="path87" /></g></g><ellipse
     cx="6660.7207"
     cy="-2220"
     rx="0.560175"
     ry="0"
     style="fill:#ffffe3;stroke-width:1.25"
     id="ellipse97" /><g
     transform="matrix(1.5625,0,0,-1.5625,7754.31,-2283.8)"
     id="g103" /><g
     transform="matrix(1.953125,0,0,-1.953125,-159.82875,2501.1875)"
     id="g107"><g
       clip-path="url(#clipPath10970)"
       id="g105">







</g></g><g
     transform="matrix(1.015625,0,0,-1.015625,5656.685,-1669.425)"
     id="g119"><path
       d="m -4211.3,-2226 h 22.149 v -22.146 h -22.149 z"
       style="fill:#008d78"
       id="path109" /><g
       transform="matrix(1.25,0,0,1.25,-4207.2,-2234)"
       id="g113"><path
         d="M 0,0 H 1.717 V -7.473 H 3.912 V 0 H 5.678 V 1.867 H 0 Z"
         style="fill:#ffffff"
         id="path111" /></g><g
       transform="matrix(1.25,0,0,1.25,-4197.4,-2238.3)"
       id="g117"><path
         d="m 0,0 c 0.424,-0.037 0.945,0.053 1.332,-0.176 0.398,-0.248 0.475,-0.885 0.475,-1.304 0,-0.54 -0.09,-1.199 -0.76,-1.199 -0.883,0 -0.76,1.046 -0.799,1.669 h -1.967 l 0.014,-0.635 c 0.098,-1.655 0.994,-2.59 2.703,-2.59 1.815,0 2.889,0.872 2.889,2.755 0,0.994 -0.336,2.015 -1.487,2.302 v 0.024 c 0.899,0.424 1.262,1.097 1.262,2.079 0,1.708 -1.07,2.405 -2.664,2.405 -1.299,0 -2.654,-0.859 -2.703,-2.254 L -1.719,2.393 H 0.273 C 0.299,2.887 0.225,3.748 0.945,3.748 1.533,3.748 1.682,3.326 1.682,2.789 1.682,2.467 1.568,1.943 1.285,1.746 0.922,1.481 0.424,1.521 0,1.494 Z"
         style="fill:#ffffff"
         id="path115" /></g></g><g
     transform="matrix(1.015625,0,0,-1.015625,5817.185,-1761.675)"
     id="g131"><path
       d="m -4393.5,-2316.9 h 22.146 v -22.146 h -22.146 z"
       style="fill:#008d78"
       id="path121" /><g
       transform="matrix(1.25,0,0,1.25,-4389.4,-2324.2)"
       id="g125"><path
         d="M 0,0 H 1.719 V -7.471 H 3.912 V 0 H 5.678 V 1.871 H 0 Z"
         style="fill:#ffffff"
         id="path123" /></g><g
       transform="matrix(1.25,0,0,1.25,-4379.1,-2326.1)"
       id="g129"><path
         d="M 0,0 V 0.447 C 0,0.92 0.066,1.782 0.727,1.82 1.297,1.867 1.51,1.372 1.51,0.896 1.51,0.213 1.359,-0.188 0.912,-0.686 L -0.035,-1.68 C -1.033,-2.778 -1.992,-4.108 -1.992,-5.654 V -5.965 H 3.6 v 1.681 H 0.375 c 0.111,0.524 0.898,1.308 1.232,1.63 l 0.815,0.787 c 0.793,0.836 1.168,1.505 1.168,2.679 0,1.729 -1.024,2.565 -2.701,2.565 -1.883,0 -2.868,-1.046 -2.868,-2.893 V 0 Z"
         style="fill:#ffffff"
         id="path127" /></g></g><g
     transform="matrix(1.015625,0,0,-1.015625,5792.81,-1730.8)"
     id="g143"><path
       d="m -4393.5,-2286.5 h 22.146 v -22.146 h -22.146 z"
       style="fill:#008d78"
       id="path133" /><g
       transform="matrix(1.25,0,0,1.25,-4389.4,-2294.3)"
       id="g137"><path
         d="M 0,0 H 1.719 V -7.47 H 3.912 V 0 H 5.678 V 1.869 H 0 Z"
         style="fill:#ffffff"
         id="path135" /></g><g
       transform="matrix(1.25,0,0,1.25,-4379,-2303.7)"
       id="g141"><path
         d="M 0,0 H 1.979 V 9.142 H 0.574 C 0.35,8.034 -0.896,7.722 -1.902,7.733 V 6.303 H 0 Z"
         style="fill:#ffffff"
         id="path139" /></g></g><g
     transform="matrix(0.8040125,0,0,-0.8253375,4037.935,-1607.425)"
     id="g149"><path
       d="m -4635.7,-2502.3 h 27.462 v -27.462 h -27.462 z"
       style="fill:#f76013"
       id="path145" /><path
       d="m -4620.7,-2514.9 v 4.5858 h 4.3343 c 0.9072,0 1.5875,-0.1825 2.0411,-0.5476 0.4536,-0.3498 0.6804,-0.9202 0.6804,-1.7111 0,-0.8213 -0.2268,-1.4145 -0.6804,-1.7795 -0.4536,-0.3651 -1.1339,-0.5476 -2.0411,-0.5476 h -4.3343 m -3.9563,7.3691 v -16.29 h 3.9563 v 6.3653 h 3.9563 c 0.9912,0 1.7051,-0.1977 2.142,-0.5932 0.4367,-0.3955 0.7223,-1.0191 0.8567,-1.8708 0.1008,-0.654 0.1764,-1.3385 0.2268,-2.0533 0.05,-0.7148 0.1848,-1.3309 0.4032,-1.848 h 3.9563 c -0.1848,0.2282 -0.3276,0.5019 -0.4284,0.8214 -0.084,0.3345 -0.1512,0.6844 -0.2015,1.0494 -0.034,0.365 -0.059,0.7225 -0.076,1.0723 -0.017,0.3498 -0.034,0.654 -0.05,0.9126 -0.034,0.4106 -0.1009,0.8213 -0.2016,1.232 -0.084,0.4106 -0.2269,0.7833 -0.4284,1.1179 -0.2016,0.3498 -0.462,0.6464 -0.7812,0.8898 -0.3192,0.2586 -0.7224,0.4486 -1.2096,0.5703 v 0.046 c 1.008,0.3651 1.7304,0.8974 2.1672,1.5971 0.4535,0.6996 0.6803,1.5285 0.6803,2.4867 0,0.6236 -0.126,1.2016 -0.3779,1.7339 -0.2353,0.5476 -0.588,1.0267 -1.0584,1.4374 -0.4536,0.4106 -1.008,0.7301 -1.6632,0.9582 -0.6384,0.2433 -1.3608,0.365 -2.1671,0.365 h -9.7018"
       style="fill:#ffffff"
       id="path147" /></g><g
     transform="matrix(0,-0.5072875,-0.5072875,0,956.4975,308.075)"
     id="g155">





















































































































































































































































































































































































































































































































































































































































































<path
   d="m -340.79,1181.3 h 46 v 46 h -46 z"
   style="fill:#4499d4"
   id="path151" /><path
   transform="matrix(0,-1,-1,0,0,0)"
   d="m -1218.4,316.04 v -6.834 h 5.848 c 1.224,2e-5 2.142,0.27202 2.754,0.816 0.612,0.52135 0.918,1.3714 0.918,2.55 0,1.224 -0.306,2.108 -0.918,2.652 -0.612,0.54401 -1.53,0.81601 -2.754,0.816 h -5.848 m -5.338,-10.982 v 24.276 h 5.338 v -9.486 h 5.338 c 1.3373,10e-6 2.3006,0.29467 2.89,0.884 0.5893,0.58934 0.9746,1.5187 1.156,2.788 0.136,0.97467 0.238,1.9947 0.306,3.06 0.068,1.0653 0.2493,1.9833 0.544,2.754 h 5.338 c -0.2494,-0.34 -0.4421,-0.748 -0.578,-1.224 -0.1134,-0.49867 -0.2041,-1.02 -0.272,-1.564 -0.045,-0.544 -0.079,-1.0767 -0.102,-1.598 -0.023,-0.5213 -0.045,-0.97467 -0.068,-1.36 -0.045,-0.612 -0.1361,-1.224 -0.272,-1.836 -0.1134,-0.612 -0.3061,-1.1673 -0.578,-1.666 -0.2721,-0.52133 -0.6234,-0.96333 -1.054,-1.326 -0.4307,-0.38533 -0.9747,-0.66866 -1.632,-0.85 v -0.068 c 1.3599,-0.54399 2.3346,-1.3373 2.924,-2.38 0.6119,-1.0427 0.9179,-2.278 0.918,-3.706 -10e-5,-0.92932 -0.1701,-1.7906 -0.51,-2.584 -0.3174,-0.81598 -0.7934,-1.53 -1.428,-2.142 -0.6121,-0.61198 -1.3601,-1.088 -2.244,-1.428 -0.8614,-0.36265 -1.836,-0.54398 -2.924,-0.544 h -13.09 m 35.486,24.276 v -23.8 h -3.842 c -0.136,0.90669 -0.4194,1.666 -0.85,2.278 -0.4307,0.61202 -0.9634,1.1107 -1.598,1.496 -0.612,0.36268 -1.3147,0.62335 -2.108,0.782 -0.7707,0.13602 -1.5754,0.19268 -2.414,0.17 v 3.638 h 5.984 v 15.436 h 4.828"
   style="fill:#ffffff"
   id="path153" /></g><g
     transform="matrix(0,-0.5072875,-0.5072875,0,980.635,230.075)"
     id="g161">





















































































































































































































































































































































































































































































































































































































































































<path
   d="m -494.09,1181.3 h 46 v 46 h -46 z"
   style="fill:#ff9221"
   id="path157" /><path
   transform="matrix(0,-1,-1,0,0,0)"
   d="m -1218.4,469.34 v -6.834 h 5.848 c 1.224,2e-5 2.142,0.27202 2.754,0.816 0.612,0.52135 0.918,1.3714 0.918,2.55 0,1.224 -0.306,2.108 -0.918,2.652 -0.612,0.54401 -1.53,0.81601 -2.754,0.816 h -5.848 m -5.338,-10.982 v 24.276 h 5.338 v -9.486 h 5.338 c 1.3373,10e-6 2.3006,0.29467 2.89,0.884 0.5893,0.58934 0.9746,1.5187 1.156,2.788 0.136,0.97467 0.238,1.9947 0.306,3.06 0.068,1.0653 0.2493,1.9833 0.544,2.754 h 5.338 c -0.2494,-0.34 -0.4421,-0.748 -0.578,-1.224 -0.1134,-0.49867 -0.2041,-1.02 -0.272,-1.564 -0.045,-0.544 -0.079,-1.0767 -0.102,-1.598 -0.023,-0.5213 -0.045,-0.97467 -0.068,-1.36 -0.045,-0.612 -0.1361,-1.224 -0.272,-1.836 -0.1134,-0.612 -0.3061,-1.1673 -0.578,-1.666 -0.2721,-0.52133 -0.6234,-0.96333 -1.054,-1.326 -0.4307,-0.38533 -0.9747,-0.66866 -1.632,-0.85 v -0.068 c 1.3599,-0.54399 2.3346,-1.3373 2.924,-2.38 0.6119,-1.0427 0.9179,-2.278 0.918,-3.706 -10e-5,-0.92932 -0.1701,-1.7906 -0.51,-2.584 -0.3174,-0.81598 -0.7934,-1.53 -1.428,-2.142 -0.6121,-0.61198 -1.3601,-1.088 -2.244,-1.428 -0.8614,-0.36265 -1.836,-0.54398 -2.924,-0.544 h -13.09 m 32.766,6.528 v 8.262 h -6.256 l 6.154,-8.262 h 0.102 m 0,12.24 v 5.508 h 4.59 v -5.508 h 3.162 v -3.978 h -3.162 v -14.314 h -4.318 l -10.336,13.872 v 4.42 h 10.064"
   style="fill:#ffffff"
   id="path159" /></g><g
     transform="matrix(0,-0.6250375,-0.6250375,0,1150.935,197.825)"
     id="g167">

















































































































































































































































































































































































































<path
   d="m -411.74,1231.8 h 36.8 v 36.8 h -36.8 z"
   style="fill:#007dc3"
   id="path163" /><path
   transform="matrix(0,-0.99993,-1.0001,0,0,0)"
   d="m -1262.8,383.52 v 19.393 h 13.716 v -3.5853 h -9.4522 v -15.808 h -4.2643 m 25.912,3.5582 V 383.9 h -10.62 l -1.8741,10.512 h 3.4767 c 0.3802,-0.52511 0.7876,-0.90537 1.2222,-1.1408 0.4346,-0.2535 0.9959,-0.38025 1.684,-0.38026 0.5252,10e-6 0.9869,0.0906 1.3853,0.27162 0.3983,0.18108 0.7424,0.43459 1.0321,0.76052 0.2897,0.32594 0.507,0.7062 0.6519,1.1408 0.1448,0.43459 0.2173,0.89634 0.2173,1.3852 0,0.4708 -0.082,0.93255 -0.2445,1.3852 -0.1448,0.43459 -0.3621,0.82391 -0.6519,1.168 -0.2716,0.32594 -0.6156,0.59756 -1.0321,0.81484 -0.3984,0.19919 -0.8511,0.29878 -1.3581,0.29878 -0.8691,0 -1.5844,-0.2535 -2.1457,-0.76052 -0.5614,-0.52512 -0.8873,-1.2223 -0.9778,-2.0914 h -3.857 c 0.018,0.99593 0.2173,1.8742 0.5976,2.6347 0.3984,0.74242 0.9235,1.3671 1.5754,1.8741 0.6518,0.50702 1.3942,0.88728 2.2272,1.1408 0.851,0.2354 1.7383,0.3531 2.6618,0.3531 0.9597,0.0181 1.8651,-0.13581 2.7162,-0.46175 0.851,-0.34405 1.5934,-0.8239 2.2272,-1.4396 0.6519,-0.61566 1.1679,-1.34 1.5482,-2.1729 0.3803,-0.85106 0.5704,-1.7655 0.5704,-2.7433 0,-0.88727 -0.1358,-1.7202 -0.4074,-2.4989 -0.2535,-0.79673 -0.6338,-1.4848 -1.1408,-2.0643 -0.4889,-0.57943 -1.0955,-1.0412 -1.8198,-1.3852 -0.7243,-0.34404 -1.5573,-0.51606 -2.4989,-0.51607 -0.7605,10e-6 -1.4395,0.11771 -2.0371,0.3531 -0.5975,0.2173 -1.1589,0.58851 -1.684,1.1136 l -0.054,-0.0543 0.7605,-4.3187 h 7.8497"
   style="fill:#ffffff"
   id="path165" />






















































































































































































































































</g><g
     transform="matrix(1.015625,0,0,-1.015625,4738.31,-2079.3)"
     id="g179"><path
       d="m -4393.5,-2286.5 h 22.146 v -22.146 h -22.146 z"
       style="fill:#008d78"
       id="path169" /><g
       transform="matrix(1.25,0,0,1.25,-4389.4,-2294.3)"
       id="g173"><path
         d="M 0,0 H 1.719 V -7.47 H 3.912 V 0 H 5.678 V 1.869 H 0 Z"
         style="fill:#ffffff"
         id="path171" /></g><g
       transform="matrix(1.25,0,0,1.25,-4379,-2303.7)"
       id="g177"><path
         d="M 0,0 H 1.979 V 9.142 H 0.574 C 0.35,8.034 -0.896,7.722 -1.902,7.733 V 6.303 H 0 Z"
         style="fill:#ffffff"
         id="path175" /></g></g><g
     transform="matrix(1.015625,0,0,-1.015625,4950.31,-2165.925)"
     id="g191"><path
       d="m -4393.5,-2316.9 h 22.146 v -22.146 h -22.146 z"
       style="fill:#008d78"
       id="path181" /><g
       transform="matrix(1.25,0,0,1.25,-4389.4,-2324.2)"
       id="g185"><path
         d="M 0,0 H 1.719 V -7.471 H 3.912 V 0 H 5.678 V 1.871 H 0 Z"
         style="fill:#ffffff"
         id="path183" /></g><g
       transform="matrix(1.25,0,0,1.25,-4379.1,-2326.1)"
       id="g189"><path
         d="M 0,0 V 0.447 C 0,0.92 0.066,1.782 0.727,1.82 1.297,1.867 1.51,1.372 1.51,0.896 1.51,0.213 1.359,-0.188 0.912,-0.686 L -0.035,-1.68 C -1.033,-2.778 -1.992,-4.108 -1.992,-5.654 V -5.965 H 3.6 v 1.681 H 0.375 c 0.111,0.524 0.898,1.308 1.232,1.63 l 0.815,0.787 c 0.793,0.836 1.168,1.505 1.168,2.679 0,1.729 -1.024,2.565 -2.701,2.565 -1.883,0 -2.868,-1.046 -2.868,-2.893 V 0 Z"
         style="fill:#ffffff"
         id="path187" /></g></g><g
     transform="matrix(1.015625,0,0,-1.015625,4291.185,-2163.925)"
     id="g203"><path
       d="m -4211.3,-2226 h 22.149 v -22.146 h -22.149 z"
       style="fill:#008d78"
       id="path193" /><g
       transform="matrix(1.25,0,0,1.25,-4207.2,-2234)"
       id="g197"><path
         d="M 0,0 H 1.717 V -7.473 H 3.912 V 0 H 5.678 V 1.867 H 0 Z"
         style="fill:#ffffff"
         id="path195" /></g><g
       transform="matrix(1.25,0,0,1.25,-4197.4,-2238.3)"
       id="g201"><path
         d="m 0,0 c 0.424,-0.037 0.945,0.053 1.332,-0.176 0.398,-0.248 0.475,-0.885 0.475,-1.304 0,-0.54 -0.09,-1.199 -0.76,-1.199 -0.883,0 -0.76,1.046 -0.799,1.669 h -1.967 l 0.014,-0.635 c 0.098,-1.655 0.994,-2.59 2.703,-2.59 1.815,0 2.889,0.872 2.889,2.755 0,0.994 -0.336,2.015 -1.487,2.302 v 0.024 c 0.899,0.424 1.262,1.097 1.262,2.079 0,1.708 -1.07,2.405 -2.664,2.405 -1.299,0 -2.654,-0.859 -2.703,-2.254 L -1.719,2.393 H 0.273 C 0.299,2.887 0.225,3.748 0.945,3.748 1.533,3.748 1.682,3.326 1.682,2.789 1.682,2.467 1.568,1.943 1.285,1.746 0.922,1.481 0.424,1.521 0,1.494 Z"
         style="fill:#ffffff"
         id="path199" /></g></g><g
     transform="matrix(0,-0.6250375,-0.6250375,0,1618.435,207.825)"
     id="g209">

























































































































































































































































































































































































<path
   d="m -392.18,1029.8 h 36.8 v 36.8 h -36.8 z"
   style="fill:#bdbcbc"
   id="path205" /><path
   transform="matrix(0,-1,-0.99997,0,0,0)"
   d="m -1062.4,363.63 v 19.396 h 13.719 v -3.5859 h -9.4536 v -15.81 h -4.2651 m 21.537,10.241 c -0.489,10e-6 -0.9236,-0.0996 -1.3039,-0.29882 -0.3622,-0.21732 -0.6611,-0.48897 -0.8965,-0.81497 -0.2354,-0.34409 -0.4165,-0.72441 -0.5433,-1.141 -0.1087,-0.43464 -0.163,-0.87835 -0.163,-1.3311 0,-0.43464 0.063,-0.86023 0.1902,-1.2768 0.1267,-0.41653 0.3169,-0.78779 0.5704,-1.1138 0.2536,-0.32598 0.5615,-0.58858 0.9237,-0.78781 0.3622,-0.1992 0.7697,-0.29881 1.2224,-0.29882 0.489,1e-5 0.9237,0.0996 1.304,0.29882 0.3803,0.19923 0.6972,0.47089 0.9508,0.81497 0.2716,0.32601 0.4709,0.70633 0.5976,1.141 0.1449,0.41656 0.2174,0.84215 0.2174,1.2768 0,0.47089 -0.063,0.92365 -0.1902,1.3583 -0.1268,0.41655 -0.3169,0.78781 -0.5705,1.1138 -0.2535,0.326 -0.5705,0.5886 -0.9508,0.78781 -0.3803,0.18111 -0.8331,0.27166 -1.3583,0.27165 m -2.7709,4.265 h -3.6673 c 0.1086,0.83309 0.335,1.5756 0.6791,2.2276 0.3441,0.65198 0.7878,1.2044 1.3311,1.6571 0.5433,0.4527 1.1681,0.7878 1.8745,1.0051 0.7063,0.23543 1.4669,0.35315 2.2819,0.35315 1.3583,0 2.5083,-0.28976 3.45,-0.8693 0.9418,-0.59764 1.7115,-1.3673 2.3091,-2.3091 0.5976,-0.95985 1.0323,-2.0284 1.304,-3.2056 0.2716,-1.1772 0.4074,-2.3544 0.4075,-3.5315 -10e-5,-1.1953 -0.1087,-2.3815 -0.326,-3.5587 -0.2174,-1.1772 -0.6068,-2.2276 -1.1682,-3.1512 -0.5614,-0.94173 -1.313,-1.6933 -2.2547,-2.2548 -0.9237,-0.57951 -2.1099,-0.86928 -3.5587,-0.8693 -0.9961,2e-5 -1.9016,0.18112 -2.7166,0.54331 -0.815,0.36223 -1.5213,0.86027 -2.1189,1.4941 -0.5796,0.61577 -1.0323,1.3492 -1.3583,2.2004 -0.3079,0.8331 -0.4618,1.7386 -0.4618,2.7166 0,0.76065 0.1177,1.5122 0.3531,2.2548 0.2355,0.74254 0.6067,1.4036 1.1138,1.9831 0.5433,0.59766 1.2044,1.0776 1.9831,1.4398 0.7788,0.3441 1.5756,0.51615 2.3906,0.51615 0.9236,0 1.7386,-0.16299 2.4449,-0.48899 0.7063,-0.32598 1.3221,-0.86929 1.8473,-1.6299 l 0.054,0.0543 c -0.036,0.52521 -0.1177,1.1229 -0.2445,1.7929 -0.1086,0.67009 -0.2988,1.304 -0.5705,1.9016 -0.2716,0.57954 -0.6338,1.0776 -1.0866,1.4941 -0.4528,0.39844 -1.0323,0.59765 -1.7386,0.59765 -0.6701,0 -1.2315,-0.23544 -1.6843,-0.70631 -0.4527,-0.47087 -0.7425,-1.0232 -0.8693,-1.6571"
   style="fill:#ffffff"
   id="path207" />














































































































































































































































































</g><g
     transform="matrix(0.5000375,0,0,0.5000375,976.135,429.95)"
     id="g223"><path
       d="m 46.076,45.981 v -46 h -46 v 46 z"
       style="fill:#bdbcbc"
       id="path211" /><g
       transform="matrix(0,-5.95,-5.9106,0,5.2331,32.201)"
       style="fill:#ffffff"
       id="g215"><path
         d="m 0,0 v -2.611 h 0.681 v 1.797 h 3.01 V 0 H 0"
         style="fill:#ffffff"
         id="path213" /></g><g
       transform="matrix(0,-5.95,-5.9106,0,27.26,10.65)"
       style="fill:#ffffff"
       id="g219"><path
         d="M 0,0 V 0.585 C -0.554,0.661 -0.733,1.134 -0.721,1.644 H -1.274 V 0.737 H -3.622 V 0 H 0"
         style="fill:#ffffff"
         id="path217" /></g><path
       d="m 32.511,21.332 c -5e-6,-0.37199 -5e-6,-0.81632 0,-1.333 0.02066,-0.53732 0.062,-1.085 0.124,-1.643 0.06199,-0.55798 0.16533,-1.1057 0.31,-1.643 0.14466,-0.55798 0.34099,-1.054 0.589,-1.488 0.26866,-0.43398 0.59933,-0.78532 0.992,-1.054 0.41333,-0.26865 0.91966,-0.40298 1.519,-0.403 0.59932,1.9e-5 1.1057,0.13435 1.519,0.403 0.41332,0.26868 0.75432,0.62002 1.023,1.054 0.26866,0.43402 0.46499,0.93002 0.589,1.488 0.14465,0.53735 0.24799,1.085 0.31,1.643 0.08265,0.55801 0.12399,1.1057 0.124,1.643 0.02065,0.51668 0.03099,0.96101 0.031,1.333 -1.2e-5,0.62001 -0.02068,1.3743 -0.062,2.263 -0.04135,0.86801 -0.17568,1.7153 -0.403,2.542 -0.20668,0.80601 -0.55801,1.4983 -1.054,2.077 -0.47534,0.57867 -1.1677,0.868 -2.077,0.868 -0.88868,3e-6 -1.5707,-0.28933 -2.046,-0.868 -0.47534,-0.57866 -0.82667,-1.271 -1.054,-2.077 -0.20667,-0.82666 -0.33067,-1.674 -0.372,-2.542 -0.04134,-0.88866 -0.062,-1.643 -0.062,-2.263 m -4.402,0 c -1e-6,2.17 0.20666,3.9887 0.62,5.456 0.434,1.4467 1.0127,2.604 1.736,3.472 0.72333,0.868 1.5603,1.488 2.511,1.86 0.97133,0.372 1.9943,0.558 3.069,0.558 1.0953,0 2.1183,-0.186 3.069,-0.558 0.97132,-0.372 1.8187,-0.992 2.542,-1.86 0.74398,-0.868 1.3227,-2.0253 1.736,-3.472 0.43398,-1.4673 0.65098,-3.286 0.651,-5.456 -1.7e-5,-2.108 -0.21702,-3.875 -0.651,-5.301 -0.41335,-1.4466 -0.99202,-2.604 -1.736,-3.472 -0.72335,-0.86798 -1.5707,-1.488 -2.542,-1.86 -0.95068,-0.37198 -1.9737,-0.55798 -3.069,-0.558 -1.0747,2.2e-5 -2.0977,0.18602 -3.069,0.558 -0.95067,0.37202 -1.7877,0.99202 -2.511,1.86 -0.72334,0.86802 -1.302,2.0254 -1.736,3.472 -0.41334,1.426 -0.62,3.193 -0.62,5.301"
       style="fill:#ffffff"
       id="path221" /></g><g
     transform="matrix(0.06870125,0,0,0.06870125,880.7725,445.325)"
     id="g233"><g
       transform="matrix(0,-45.032,-45.032,0,979.58,-59.354)"
       id="g227"><path
         d="M 0,0 3.661,4.884 0,9.77 -3.661,4.882 0,0"
         style="fill:#ed1b2d"
         id="path225" /></g><g
       transform="matrix(0,-45.032,-45.032,0,676.69,13.193)"
       id="g231"><path
         d="M 0,0 H 3.22 V -1.275 L 1.212,-1.843 3.22,-2.411 V -3.685 H 0 v 0.948 h 0.984 l 0.501,-0.014 0.582,-0.054 v 0.01 L 0,-2.21 v 0.734 l 2.067,0.586 v 0.009 L 1.592,-0.926 1.091,-0.948 H 0 V 0"
         style="fill:#ffffff"
         id="path229" /></g></g><g
     transform="matrix(0.06870125,0,0,0.06870125,751.5725,530.325)"
     id="g243"><g
       transform="matrix(0,-45.032,-45.032,0,979.58,-59.354)"
       id="g237"><path
         d="M 0,0 3.661,4.884 0,9.77 -3.661,4.882 0,0"
         style="fill:#ed1b2d"
         id="path235" /></g><g
       transform="matrix(0,-45.032,-45.032,0,676.69,13.193)"
       id="g241"><path
         d="M 0,0 H 3.22 V -1.275 L 1.212,-1.843 3.22,-2.411 V -3.685 H 0 v 0.948 h 0.984 l 0.501,-0.014 0.582,-0.054 v 0.01 L 0,-2.21 v 0.734 l 2.067,0.586 v 0.009 L 1.592,-0.926 1.091,-0.948 H 0 V 0"
         style="fill:#ffffff"
         id="path239" /></g></g><g
     transform="matrix(0.06870125,0,0,0.06870125,287.0225,447.45)"
     id="g253"><g
       transform="matrix(0,-45.032,-45.032,0,979.58,-59.354)"
       id="g247"><path
         d="M 0,0 3.661,4.884 0,9.77 -3.661,4.882 0,0"
         style="fill:#ed1b2d"
         id="path245" /></g><g
       transform="matrix(0,-45.032,-45.032,0,676.69,13.193)"
       id="g251"><path
         d="M 0,0 H 3.22 V -1.275 L 1.212,-1.843 3.22,-2.411 V -3.685 H 0 v 0.948 h 0.984 l 0.501,-0.014 0.582,-0.054 v 0.01 L 0,-2.21 v 0.734 l 2.067,0.586 v 0.009 L 1.592,-0.926 1.091,-0.948 H 0 V 0"
         style="fill:#ffffff"
         id="path249" /></g></g><g
     transform="matrix(0,-0.6250375,-0.6250375,0,1891.435,70.575)"
     id="g259">





































































































































































































































































































































































































<path
   d="m -391.05,1231.8 h 36.8 v 36.8 h -36.8 z"
   style="fill:#52b955"
   id="path255" /><path
   transform="matrix(0,-0.99984,-1.0002,0,0,0)"
   d="m -1262.9,362.46 v 19.395 h 13.718 v -3.5856 h -9.4531 v -15.809 h -4.2647 m 18.526,8.0677 v 2.7164 c 0.4708,10e-6 0.9598,0.0181 1.4669,0.0543 0.5251,0.0181 1.005,0.11771 1.4396,0.2988 0.4347,0.16299 0.7878,0.43463 1.0594,0.81492 0.2898,0.3803 0.4346,0.93263 0.4347,1.657 -1e-4,0.92358 -0.2989,1.657 -0.8965,2.2003 -0.5976,0.52517 -1.331,0.78775 -2.2002,0.78775 -0.5614,0 -1.0504,-0.0996 -1.4669,-0.2988 -0.3984,-0.1992 -0.7334,-0.46179 -1.0051,-0.78776 -0.2716,-0.34407 -0.4799,-0.74247 -0.6247,-1.1952 -0.1449,-0.47084 -0.2264,-0.95979 -0.2445,-1.4668 h -3.6671 c -0.018,1.1047 0.1358,2.0826 0.4618,2.9337 0.344,0.85114 0.8239,1.5755 1.4396,2.1731 0.6158,0.5795 1.3582,1.0232 2.2275,1.331 0.8873,0.30786 1.8652,0.46179 2.9337,0.46179 0.9236,0 1.8109,-0.13582 2.6621,-0.40746 0.8511,-0.27164 1.6026,-0.67004 2.2546,-1.1952 0.6519,-0.52517 1.168,-1.1771 1.5483,-1.9558 0.3984,-0.77869 0.5976,-1.666 0.5976,-2.6621 0,-1.0866 -0.2988,-2.0192 -0.8964,-2.7979 -0.5976,-0.77869 -1.4216,-1.2858 -2.4719,-1.5212 v -0.0543 c 0.8873,-0.25352 1.5483,-0.73341 1.983,-1.4397 0.4527,-0.70625 0.679,-1.5212 0.6791,-2.4448 -10e-5,-0.85112 -0.1902,-1.6027 -0.5705,-2.2546 -0.3803,-0.65192 -0.8783,-1.2042 -1.494,-1.657 -0.5976,-0.45271 -1.2767,-0.78774 -2.0373,-1.0051 -0.7606,-0.2354 -1.5212,-0.35311 -2.2818,-0.35313 -0.9779,2e-5 -1.8652,0.163 -2.662,0.48895 -0.7968,0.30788 -1.485,0.75156 -2.0645,1.331 -0.5614,0.57951 -1.0051,1.2767 -1.331,2.0916 -0.3079,0.79682 -0.4799,1.6842 -0.5161,2.6621 h 3.6671 c -0.018,-0.97789 0.2173,-1.7838 0.7063,-2.4176 0.507,-0.65192 1.2495,-0.97789 2.2274,-0.97791 0.7062,2e-5 1.331,0.21733 1.8743,0.65194 0.5433,0.43464 0.8149,1.0594 0.8149,1.8743 0,0.54329 -0.1358,0.97791 -0.4074,1.3039 -0.2536,0.32598 -0.5886,0.57951 -1.0051,0.76059 -0.3984,0.163 -0.833,0.2626 -1.3039,0.2988 -0.4708,0.0362 -0.9145,0.0362 -1.331,0"
   style="fill:#ffffff"
   id="path257" />


































































































































































































































































</g><g
     transform="matrix(0,-0.6250375,-0.6250375,0,1789.81,69.825)"
     id="g265">

























































































































































































































































































































































































<path
   d="m -392.18,1029.8 h 36.8 v 36.8 h -36.8 z"
   style="fill:#f68429"
   id="path261" /><path
   transform="matrix(0,-1,-0.99997,0,0,0)"
   d="m -1062.4,363.63 v 19.396 h 13.719 v -3.5859 h -9.4536 v -15.81 h -4.2651 m 21.537,10.241 c -0.489,10e-6 -0.9236,-0.0996 -1.3039,-0.29882 -0.3622,-0.21732 -0.6611,-0.48897 -0.8965,-0.81497 -0.2354,-0.34409 -0.4165,-0.72441 -0.5433,-1.141 -0.1087,-0.43464 -0.163,-0.87835 -0.163,-1.3311 0,-0.43464 0.063,-0.86023 0.1902,-1.2768 0.1267,-0.41653 0.3169,-0.78779 0.5704,-1.1138 0.2536,-0.32598 0.5615,-0.58858 0.9237,-0.78781 0.3622,-0.1992 0.7697,-0.29881 1.2224,-0.29882 0.489,1e-5 0.9237,0.0996 1.304,0.29882 0.3803,0.19923 0.6972,0.47089 0.9508,0.81497 0.2716,0.32601 0.4709,0.70633 0.5976,1.141 0.1449,0.41656 0.2174,0.84215 0.2174,1.2768 0,0.47089 -0.063,0.92365 -0.1902,1.3583 -0.1268,0.41655 -0.3169,0.78781 -0.5705,1.1138 -0.2535,0.326 -0.5705,0.5886 -0.9508,0.78781 -0.3803,0.18111 -0.8331,0.27166 -1.3583,0.27165 m -2.7709,4.265 h -3.6673 c 0.1086,0.83309 0.335,1.5756 0.6791,2.2276 0.3441,0.65198 0.7878,1.2044 1.3311,1.6571 0.5433,0.4527 1.1681,0.7878 1.8745,1.0051 0.7063,0.23543 1.4669,0.35315 2.2819,0.35315 1.3583,0 2.5083,-0.28976 3.45,-0.8693 0.9418,-0.59764 1.7115,-1.3673 2.3091,-2.3091 0.5976,-0.95985 1.0323,-2.0284 1.304,-3.2056 0.2716,-1.1772 0.4074,-2.3544 0.4075,-3.5315 -10e-5,-1.1953 -0.1087,-2.3815 -0.326,-3.5587 -0.2174,-1.1772 -0.6068,-2.2276 -1.1682,-3.1512 -0.5614,-0.94173 -1.313,-1.6933 -2.2547,-2.2548 -0.9237,-0.57951 -2.1099,-0.86928 -3.5587,-0.8693 -0.9961,2e-5 -1.9016,0.18112 -2.7166,0.54331 -0.815,0.36223 -1.5213,0.86027 -2.1189,1.4941 -0.5796,0.61577 -1.0323,1.3492 -1.3583,2.2004 -0.3079,0.8331 -0.4618,1.7386 -0.4618,2.7166 0,0.76065 0.1177,1.5122 0.3531,2.2548 0.2355,0.74254 0.6067,1.4036 1.1138,1.9831 0.5433,0.59766 1.2044,1.0776 1.9831,1.4398 0.7788,0.3441 1.5756,0.51615 2.3906,0.51615 0.9236,0 1.7386,-0.16299 2.4449,-0.48899 0.7063,-0.32598 1.3221,-0.86929 1.8473,-1.6299 l 0.054,0.0543 c -0.036,0.52521 -0.1177,1.1229 -0.2445,1.7929 -0.1086,0.67009 -0.2988,1.304 -0.5705,1.9016 -0.2716,0.57954 -0.6338,1.0776 -1.0866,1.4941 -0.4528,0.39844 -1.0323,0.59765 -1.7386,0.59765 -0.6701,0 -1.2315,-0.23544 -1.6843,-0.70631 -0.4527,-0.47087 -0.7425,-1.0232 -0.8693,-1.6571"
   style="fill:#ffffff"
   id="path263" />














































































































































































































































































</g><g
     transform="matrix(0.5000375,0,0,0.5000375,1147.56,291.95)"
     id="g279"><path
       d="m 46.076,45.981 v -46 h -46 v 46 z"
       style="fill:#bdbcbc"
       id="path267" /><g
       transform="matrix(0,-5.95,-5.9106,0,5.2331,32.201)"
       style="fill:#ffffff"
       id="g271"><path
         d="m 0,0 v -2.611 h 0.681 v 1.797 h 3.01 V 0 H 0"
         style="fill:#ffffff"
         id="path269" /></g><g
       transform="matrix(0,-5.95,-5.9106,0,27.26,10.65)"
       style="fill:#ffffff"
       id="g275"><path
         d="M 0,0 V 0.585 C -0.554,0.661 -0.733,1.134 -0.721,1.644 H -1.274 V 0.737 H -3.622 V 0 H 0"
         style="fill:#ffffff"
         id="path273" /></g><path
       d="m 32.511,21.332 c -5e-6,-0.37199 -5e-6,-0.81632 0,-1.333 0.02066,-0.53732 0.062,-1.085 0.124,-1.643 0.06199,-0.55798 0.16533,-1.1057 0.31,-1.643 0.14466,-0.55798 0.34099,-1.054 0.589,-1.488 0.26866,-0.43398 0.59933,-0.78532 0.992,-1.054 0.41333,-0.26865 0.91966,-0.40298 1.519,-0.403 0.59932,1.9e-5 1.1057,0.13435 1.519,0.403 0.41332,0.26868 0.75432,0.62002 1.023,1.054 0.26866,0.43402 0.46499,0.93002 0.589,1.488 0.14465,0.53735 0.24799,1.085 0.31,1.643 0.08265,0.55801 0.12399,1.1057 0.124,1.643 0.02065,0.51668 0.03099,0.96101 0.031,1.333 -1.2e-5,0.62001 -0.02068,1.3743 -0.062,2.263 -0.04135,0.86801 -0.17568,1.7153 -0.403,2.542 -0.20668,0.80601 -0.55801,1.4983 -1.054,2.077 -0.47534,0.57867 -1.1677,0.868 -2.077,0.868 -0.88868,3e-6 -1.5707,-0.28933 -2.046,-0.868 -0.47534,-0.57866 -0.82667,-1.271 -1.054,-2.077 -0.20667,-0.82666 -0.33067,-1.674 -0.372,-2.542 -0.04134,-0.88866 -0.062,-1.643 -0.062,-2.263 m -4.402,0 c -1e-6,2.17 0.20666,3.9887 0.62,5.456 0.434,1.4467 1.0127,2.604 1.736,3.472 0.72333,0.868 1.5603,1.488 2.511,1.86 0.97133,0.372 1.9943,0.558 3.069,0.558 1.0953,0 2.1183,-0.186 3.069,-0.558 0.97132,-0.372 1.8187,-0.992 2.542,-1.86 0.74398,-0.868 1.3227,-2.0253 1.736,-3.472 0.43398,-1.4673 0.65098,-3.286 0.651,-5.456 -1.7e-5,-2.108 -0.21702,-3.875 -0.651,-5.301 -0.41335,-1.4466 -0.99202,-2.604 -1.736,-3.472 -0.72335,-0.86798 -1.5707,-1.488 -2.542,-1.86 -0.95068,-0.37198 -1.9737,-0.55798 -3.069,-0.558 -1.0747,2.2e-5 -2.0977,0.18602 -3.069,0.558 -0.95067,0.37202 -1.7877,0.99202 -2.511,1.86 -0.72334,0.86802 -1.302,2.0254 -1.736,3.472 -0.41334,1.426 -0.62,3.193 -0.62,5.301"
       style="fill:#ffffff"
       id="path277" /></g><g
     transform="matrix(0.06870125,0,0,0.06870125,1027.435,307.45)"
     id="g289"><g
       transform="matrix(0,-45.032,-45.032,0,979.58,-59.354)"
       id="g283"><path
         d="M 0,0 3.661,4.884 0,9.77 -3.661,4.882 0,0"
         style="fill:#ed1b2d"
         id="path281" /></g><g
       transform="matrix(0,-45.032,-45.032,0,676.69,13.193)"
       id="g287"><path
         d="M 0,0 H 3.22 V -1.275 L 1.212,-1.843 3.22,-2.411 V -3.685 H 0 v 0.948 h 0.984 l 0.501,-0.014 0.582,-0.054 v 0.01 L 0,-2.21 v 0.734 l 2.067,0.586 v 0.009 L 1.592,-0.926 1.091,-0.948 H 0 V 0"
         style="fill:#ffffff"
         id="path285" /></g></g><g
     transform="matrix(0,-0.6250375,-0.6250375,0,1977.81,120.325)"
     id="g295">





































































































































































































































































































































































































<path
   d="m -391.05,1231.8 h 36.8 v 36.8 h -36.8 z"
   style="fill:#52b955"
   id="path291" /><path
   transform="matrix(0,-0.99984,-1.0002,0,0,0)"
   d="m -1262.9,362.46 v 19.395 h 13.718 v -3.5856 h -9.4531 v -15.809 h -4.2647 m 18.526,8.0677 v 2.7164 c 0.4708,10e-6 0.9598,0.0181 1.4669,0.0543 0.5251,0.0181 1.005,0.11771 1.4396,0.2988 0.4347,0.16299 0.7878,0.43463 1.0594,0.81492 0.2898,0.3803 0.4346,0.93263 0.4347,1.657 -1e-4,0.92358 -0.2989,1.657 -0.8965,2.2003 -0.5976,0.52517 -1.331,0.78775 -2.2002,0.78775 -0.5614,0 -1.0504,-0.0996 -1.4669,-0.2988 -0.3984,-0.1992 -0.7334,-0.46179 -1.0051,-0.78776 -0.2716,-0.34407 -0.4799,-0.74247 -0.6247,-1.1952 -0.1449,-0.47084 -0.2264,-0.95979 -0.2445,-1.4668 h -3.6671 c -0.018,1.1047 0.1358,2.0826 0.4618,2.9337 0.344,0.85114 0.8239,1.5755 1.4396,2.1731 0.6158,0.5795 1.3582,1.0232 2.2275,1.331 0.8873,0.30786 1.8652,0.46179 2.9337,0.46179 0.9236,0 1.8109,-0.13582 2.6621,-0.40746 0.8511,-0.27164 1.6026,-0.67004 2.2546,-1.1952 0.6519,-0.52517 1.168,-1.1771 1.5483,-1.9558 0.3984,-0.77869 0.5976,-1.666 0.5976,-2.6621 0,-1.0866 -0.2988,-2.0192 -0.8964,-2.7979 -0.5976,-0.77869 -1.4216,-1.2858 -2.4719,-1.5212 v -0.0543 c 0.8873,-0.25352 1.5483,-0.73341 1.983,-1.4397 0.4527,-0.70625 0.679,-1.5212 0.6791,-2.4448 -10e-5,-0.85112 -0.1902,-1.6027 -0.5705,-2.2546 -0.3803,-0.65192 -0.8783,-1.2042 -1.494,-1.657 -0.5976,-0.45271 -1.2767,-0.78774 -2.0373,-1.0051 -0.7606,-0.2354 -1.5212,-0.35311 -2.2818,-0.35313 -0.9779,2e-5 -1.8652,0.163 -2.662,0.48895 -0.7968,0.30788 -1.485,0.75156 -2.0645,1.331 -0.5614,0.57951 -1.0051,1.2767 -1.331,2.0916 -0.3079,0.79682 -0.4799,1.6842 -0.5161,2.6621 h 3.6671 c -0.018,-0.97789 0.2173,-1.7838 0.7063,-2.4176 0.507,-0.65192 1.2495,-0.97789 2.2274,-0.97791 0.7062,2e-5 1.331,0.21733 1.8743,0.65194 0.5433,0.43464 0.8149,1.0594 0.8149,1.8743 0,0.54329 -0.1358,0.97791 -0.4074,1.3039 -0.2536,0.32598 -0.5886,0.57951 -1.0051,0.76059 -0.3984,0.163 -0.833,0.2626 -1.3039,0.2988 -0.4708,0.0362 -0.9145,0.0362 -1.331,0"
   style="fill:#ffffff"
   id="path293" />


































































































































































































































































</g><g
     transform="matrix(0.06870125,0,0,0.06870125,1114.06,357.2)"
     id="g305"><g
       transform="matrix(0,-45.032,-45.032,0,979.58,-59.354)"
       id="g299"><path
         d="M 0,0 3.661,4.884 0,9.77 -3.661,4.882 0,0"
         style="fill:#ed1b2d"
         id="path297" /></g><g
       transform="matrix(0,-45.032,-45.032,0,676.69,13.193)"
       id="g303"><path
         d="M 0,0 H 3.22 V -1.275 L 1.212,-1.843 3.22,-2.411 V -3.685 H 0 v 0.948 h 0.984 l 0.501,-0.014 0.582,-0.054 v 0.01 L 0,-2.21 v 0.734 l 2.067,0.586 v 0.009 L 1.592,-0.926 1.091,-0.948 H 0 V 0"
         style="fill:#ffffff"
         id="path301" /></g></g><g
     transform="matrix(0,-0.6250375,-0.6250375,0,2079.935,206.2)"
     id="g311">





































































































































































































































































































































































































<path
   d="m -391.05,1231.8 h 36.8 v 36.8 h -36.8 z"
   style="fill:#52b955"
   id="path307" /><path
   transform="matrix(0,-0.99984,-1.0002,0,0,0)"
   d="m -1262.9,362.46 v 19.395 h 13.718 v -3.5856 h -9.4531 v -15.809 h -4.2647 m 18.526,8.0677 v 2.7164 c 0.4708,10e-6 0.9598,0.0181 1.4669,0.0543 0.5251,0.0181 1.005,0.11771 1.4396,0.2988 0.4347,0.16299 0.7878,0.43463 1.0594,0.81492 0.2898,0.3803 0.4346,0.93263 0.4347,1.657 -1e-4,0.92358 -0.2989,1.657 -0.8965,2.2003 -0.5976,0.52517 -1.331,0.78775 -2.2002,0.78775 -0.5614,0 -1.0504,-0.0996 -1.4669,-0.2988 -0.3984,-0.1992 -0.7334,-0.46179 -1.0051,-0.78776 -0.2716,-0.34407 -0.4799,-0.74247 -0.6247,-1.1952 -0.1449,-0.47084 -0.2264,-0.95979 -0.2445,-1.4668 h -3.6671 c -0.018,1.1047 0.1358,2.0826 0.4618,2.9337 0.344,0.85114 0.8239,1.5755 1.4396,2.1731 0.6158,0.5795 1.3582,1.0232 2.2275,1.331 0.8873,0.30786 1.8652,0.46179 2.9337,0.46179 0.9236,0 1.8109,-0.13582 2.6621,-0.40746 0.8511,-0.27164 1.6026,-0.67004 2.2546,-1.1952 0.6519,-0.52517 1.168,-1.1771 1.5483,-1.9558 0.3984,-0.77869 0.5976,-1.666 0.5976,-2.6621 0,-1.0866 -0.2988,-2.0192 -0.8964,-2.7979 -0.5976,-0.77869 -1.4216,-1.2858 -2.4719,-1.5212 v -0.0543 c 0.8873,-0.25352 1.5483,-0.73341 1.983,-1.4397 0.4527,-0.70625 0.679,-1.5212 0.6791,-2.4448 -10e-5,-0.85112 -0.1902,-1.6027 -0.5705,-2.2546 -0.3803,-0.65192 -0.8783,-1.2042 -1.494,-1.657 -0.5976,-0.45271 -1.2767,-0.78774 -2.0373,-1.0051 -0.7606,-0.2354 -1.5212,-0.35311 -2.2818,-0.35313 -0.9779,2e-5 -1.8652,0.163 -2.662,0.48895 -0.7968,0.30788 -1.485,0.75156 -2.0645,1.331 -0.5614,0.57951 -1.0051,1.2767 -1.331,2.0916 -0.3079,0.79682 -0.4799,1.6842 -0.5161,2.6621 h 3.6671 c -0.018,-0.97789 0.2173,-1.7838 0.7063,-2.4176 0.507,-0.65192 1.2495,-0.97789 2.2274,-0.97791 0.7062,2e-5 1.331,0.21733 1.8743,0.65194 0.5433,0.43464 0.8149,1.0594 0.8149,1.8743 0,0.54329 -0.1358,0.97791 -0.4074,1.3039 -0.2536,0.32598 -0.5886,0.57951 -1.0051,0.76059 -0.3984,0.163 -0.833,0.2626 -1.3039,0.2988 -0.4708,0.0362 -0.9145,0.0362 -1.331,0"
   style="fill:#ffffff"
   id="path309" />


































































































































































































































































</g><g
     transform="matrix(0.06870125,0,0,0.06870125,1216.185,443.075)"
     id="g321"><g
       transform="matrix(0,-45.032,-45.032,0,979.58,-59.354)"
       id="g315"><path
         d="M 0,0 3.661,4.884 0,9.77 -3.661,4.882 0,0"
         style="fill:#ed1b2d"
         id="path313" /></g><g
       transform="matrix(0,-45.032,-45.032,0,676.69,13.193)"
       id="g319"><path
         d="M 0,0 H 3.22 V -1.275 L 1.212,-1.843 3.22,-2.411 V -3.685 H 0 v 0.948 h 0.984 l 0.501,-0.014 0.582,-0.054 v 0.01 L 0,-2.21 v 0.734 l 2.067,0.586 v 0.009 L 1.592,-0.926 1.091,-0.948 H 0 V 0"
         style="fill:#ffffff"
         id="path317" /></g></g><g
     transform="matrix(0.7236125,0,0,-0.7428,3789.31,-1592.8)"
     id="g327"><path
       d="m -4635.7,-2502.3 h 27.462 v -27.462 h -27.462 z"
       style="fill:#f76013"
       id="path323" /><path
       d="m -4620.7,-2514.9 v 4.5858 h 4.3343 c 0.9072,0 1.5875,-0.1825 2.0411,-0.5476 0.4536,-0.3498 0.6804,-0.9202 0.6804,-1.7111 0,-0.8213 -0.2268,-1.4145 -0.6804,-1.7795 -0.4536,-0.3651 -1.1339,-0.5476 -2.0411,-0.5476 h -4.3343 m -3.9563,7.3691 v -16.29 h 3.9563 v 6.3653 h 3.9563 c 0.9912,0 1.7051,-0.1977 2.142,-0.5932 0.4367,-0.3955 0.7223,-1.0191 0.8567,-1.8708 0.1008,-0.654 0.1764,-1.3385 0.2268,-2.0533 0.05,-0.7148 0.1848,-1.3309 0.4032,-1.848 h 3.9563 c -0.1848,0.2282 -0.3276,0.5019 -0.4284,0.8214 -0.084,0.3345 -0.1512,0.6844 -0.2015,1.0494 -0.034,0.365 -0.059,0.7225 -0.076,1.0723 -0.017,0.3498 -0.034,0.654 -0.05,0.9126 -0.034,0.4106 -0.1009,0.8213 -0.2016,1.232 -0.084,0.4106 -0.2269,0.7833 -0.4284,1.1179 -0.2016,0.3498 -0.462,0.6464 -0.7812,0.8898 -0.3192,0.2586 -0.7224,0.4486 -1.2096,0.5703 v 0.046 c 1.008,0.3651 1.7304,0.8974 2.1672,1.5971 0.4535,0.6996 0.6803,1.5285 0.6803,2.4867 0,0.6236 -0.126,1.2016 -0.3779,1.7339 -0.2353,0.5476 -0.588,1.0267 -1.0584,1.4374 -0.4536,0.4106 -1.008,0.7301 -1.6632,0.9582 -0.6384,0.2433 -1.3608,0.365 -2.1671,0.365 h -9.7018"
       style="fill:#ffffff"
       id="path325" /></g><g
     transform="matrix(1.25,0,0,-1.25,-240.58125,2296.0482)"
     id="g363"><path
   transform="scale(1.0614,-0.94213)"
   d="m 1099.6,-1910.1 v 17.995 h 6.0198 v -17.995 h 4.5311 v -5.1137 h -15.017 v 5.1137 h 4.4664 m 17.959,4.6605 v -5.4373 h 1.1651 c 0.9063,10e-5 1.5536,0.205 1.9419,0.615 0.41,0.4099 0.615,1.1004 0.615,2.0713 0,0.8199 -0.205,1.4888 -0.615,2.0066 -0.4099,0.4963 -1.0464,0.7444 -1.9095,0.7444 h -1.1975 m -6.0198,-9.7742 v 23.108 h 6.0198 v -9.2563 h 1.5859 c 0.3668,0 0.6689,0.054 0.9062,0.1618 0.2589,0.086 0.4639,0.2589 0.6149,0.5179 0.1726,0.2373 0.2913,0.5717 0.3561,1.0033 0.065,0.4315 0.097,0.9709 0.097,1.6182 v 1.5535 0.9386 c 0.022,0.3668 0.043,0.7552 0.065,1.1651 0.043,0.41 0.097,0.8199 0.1618,1.2299 0.086,0.41 0.205,0.766 0.356,1.068 h 6.4083 v -0.3236 c -0.1943,-0.1079 -0.3345,-0.2158 -0.4208,-0.3237 -0.086,-0.1294 -0.1726,-0.2589 -0.2589,-0.3883 -0.065,-0.1295 -0.1187,-0.3129 -0.1618,-0.5502 -0.043,-0.2374 -0.076,-0.4963 -0.097,-0.7768 -0.022,-0.3021 -0.032,-0.6149 -0.032,-0.9386 v -0.9386 -1.9742 c 0,-1.5535 -0.2697,-2.7726 -0.8091,-3.6572 -0.5394,-0.8847 -1.532,-1.3917 -2.9776,-1.5212 v -0.065 c 1.3809,-0.2158 2.3842,-0.7983 3.01,-1.7477 0.6257,-0.9494 0.9385,-2.2008 0.9385,-3.7543 0,-0.8847 -0.1187,-1.7046 -0.356,-2.4598 -0.2158,-0.7551 -0.5826,-1.4024 -1.1004,-1.9419 -0.4963,-0.5609 -1.1543,-0.9925 -1.9742,-1.2945 -0.7984,-0.3021 -1.7693,-0.4531 -2.9129,-0.4532 h -9.4181 m 26.126,4.7253 -1.6506,9.8066 h 3.3659 l -1.6506,-9.8066 h -0.065 m 3.819,-4.7253 5.6315,23.108 h -6.4082 l -0.615,-4.0456 h -4.79 l -0.6149,4.0456 h -6.3111 l 5.5343,-23.108 h 7.5734 m 6.429,0 v 23.108 h 5.6315 v -17.218 h 0.065 l 3.2041,17.218 h 4.3369 l 3.2041,-17.218 h 0.065 v 17.218 h 5.6314 v -23.108 h -8.609 l -2.4274,13.69 h -0.065 l -2.4274,-13.69 h -8.609 m 30.967,18.772 v -5.6315 h 1.6829 c 0.561,0 1.0573,0.2373 1.4888,0.712 0.4315,0.4747 0.6473,1.1651 0.6473,2.0713 0,0.971 -0.2158,1.6938 -0.6473,2.1685 -0.4315,0.4531 -0.9278,0.6797 -1.4888,0.6797 h -1.6829 m 0,-9.7095 v -4.7253 h 1.4564 c 0.6257,1e-4 1.1004,0.2374 1.424,0.7121 0.3237,0.4747 0.4855,1.0357 0.4855,1.6829 0,0.6258 -0.1618,1.176 -0.4855,1.6506 -0.3236,0.4532 -0.7983,0.6797 -1.424,0.6797 h -1.4564 m -6.0199,-9.0622 v 23.108 h 9.0945 c 1.2515,0 2.3195,-0.1618 3.2041,-0.4854 0.8847,-0.3453 1.5967,-0.8199 2.1361,-1.4241 0.561,-0.6041 0.971,-1.3269 1.2299,-2.1684 0.2589,-0.8415 0.3884,-1.7585 0.3884,-2.751 0,-0.6042 -0.086,-1.1975 -0.2589,-1.7801 -0.1511,-0.6041 -0.3992,-1.1543 -0.7444,-1.6506 -0.3453,-0.4963 -0.7876,-0.9062 -1.327,-1.2299 -0.5394,-0.3452 -1.1867,-0.5502 -1.9419,-0.6149 v -0.065 c 0.6473,-0.1295 1.1975,-0.356 1.6506,-0.6797 0.4531,-0.3236 0.8199,-0.712 1.1004,-1.1651 0.3021,-0.4747 0.5178,-0.9925 0.6473,-1.5535 0.151,-0.5826 0.2266,-1.176 0.2266,-1.7801 0,-1.7477 -0.5179,-3.1394 -1.5535,-4.1751 -1.0142,-1.0572 -2.6,-1.5858 -4.7577,-1.5859 h -9.0945 m 25.931,4.7253 -1.6506,9.8066 h 3.366 l -1.6506,-9.8066 h -0.065 m 3.8191,-4.7253 5.6315,23.108 h -6.4083 l -0.6149,-4.0456 h -4.79 l -0.6149,4.0456 h -6.3112 l 5.5344,-23.108 h 7.5734 m 6.4289,0 v 23.108 h 6.0199 v -23.108 h -6.0199 m 7.2098,0 5.0813,11.392 -5.3726,11.716 h 6.6348 l 2.2979,-6.9584 h 0.065 l 2.2979,6.9584 h 6.7319 l -5.405,-11.716 5.0166,-11.392 h -6.7319 l -1.9095,6.6996 h -0.065 l -1.9095,-6.6996 h -6.7319"
   style="fill:#008d78"
   id="path329" />

<g
   transform="translate(1.1661,30.502)"
   id="g345"><path
     d="m 1132.7,1773.7 h 21.927 v -21.936 H 1132.7 Z"
     style="fill:#ffffff"
     id="path331" /><g
     transform="matrix(1.5625,0,0,1.5625,1138.1,1751.9)"
     id="g335"><path
       d="M 0,0 H 10.576 V 3.289 L 6.932,6.932 Z"
       style="fill:#008d78"
       id="path333" /></g><g
     transform="matrix(1.5625,0,0,1.5625,1154.7,1773.8)"
     id="g339"><path
       d="M 0,0 H -5.064 L 0,-5.069 Z"
       style="fill:#008d78"
       id="path337" /></g><g
     transform="matrix(1.5625,0,0,1.5625,1137.8,1773.8)"
     id="g343"><path
       d="m 0,0 h -3.305 v -10.417 l 6.86,6.86 z"
       style="fill:#008d78"
       id="path341" /></g></g><g
   transform="translate(1.105,30.394)"
   id="g361"><path
     d="m 1132.7,1773.7 h 21.927 v -21.936 H 1132.7 Z"
     style="fill:#ffffff"
     id="path347" /><g
     transform="matrix(1.5625,0,0,1.5625,1138.1,1751.9)"
     id="g351"><path
       d="M 0,0 H 10.576 V 3.289 L 6.932,6.932 Z"
       style="fill:#008d78"
       id="path349" /></g><g
     transform="matrix(1.5625,0,0,1.5625,1154.7,1773.8)"
     id="g355"><path
       d="M 0,0 H -5.064 L 0,-5.069 Z"
       style="fill:#008d78"
       id="path353" /></g><g
     transform="matrix(1.5625,0,0,1.5625,1137.8,1773.8)"
     id="g359"><path
       d="m 0,0 h -3.305 v -10.417 l 6.86,6.86 z"
       style="fill:#008d78"
       id="path357" /></g></g></g><g
     transform="matrix(0,-0.6250375,-0.6250375,0,1615.685,280.95)"
     id="g369"><path
       d="m -411.74,1231.8 h 36.8 v 36.8 h -36.8 z"
       style="fill:#007dc3"
       id="path365" /><path
       transform="matrix(0,-0.99993,-1.0001,0,0,0)"
       d="m -1262.8,383.52 v 19.393 h 13.716 v -3.5853 h -9.4522 v -15.808 h -4.2643 m 25.912,3.5582 V 383.9 h -10.62 l -1.8741,10.512 h 3.4767 c 0.3802,-0.52511 0.7876,-0.90537 1.2222,-1.1408 0.4346,-0.2535 0.9959,-0.38025 1.684,-0.38026 0.5252,10e-6 0.9869,0.0906 1.3853,0.27162 0.3983,0.18108 0.7424,0.43459 1.0321,0.76052 0.2897,0.32594 0.507,0.7062 0.6519,1.1408 0.1448,0.43459 0.2173,0.89634 0.2173,1.3852 0,0.4708 -0.082,0.93255 -0.2445,1.3852 -0.1448,0.43459 -0.3621,0.82391 -0.6519,1.168 -0.2716,0.32594 -0.6156,0.59756 -1.0321,0.81484 -0.3984,0.19919 -0.8511,0.29878 -1.3581,0.29878 -0.8691,0 -1.5844,-0.2535 -2.1457,-0.76052 -0.5614,-0.52512 -0.8873,-1.2223 -0.9778,-2.0914 h -3.857 c 0.018,0.99593 0.2173,1.8742 0.5976,2.6347 0.3984,0.74242 0.9235,1.3671 1.5754,1.8741 0.6518,0.50702 1.3942,0.88728 2.2272,1.1408 0.851,0.2354 1.7383,0.3531 2.6618,0.3531 0.9597,0.0181 1.8651,-0.13581 2.7162,-0.46175 0.851,-0.34405 1.5934,-0.8239 2.2272,-1.4396 0.6519,-0.61566 1.1679,-1.34 1.5482,-2.1729 0.3803,-0.85106 0.5704,-1.7655 0.5704,-2.7433 0,-0.88727 -0.1358,-1.7202 -0.4074,-2.4989 -0.2535,-0.79673 -0.6338,-1.4848 -1.1408,-2.0643 -0.4889,-0.57943 -1.0955,-1.0412 -1.8198,-1.3852 -0.7243,-0.34404 -1.5573,-0.51606 -2.4989,-0.51607 -0.7605,10e-6 -1.4395,0.11771 -2.0371,0.3531 -0.5975,0.2173 -1.1589,0.58851 -1.684,1.1136 l -0.054,-0.0543 0.7605,-4.3187 h 7.8497"
       style="fill:#ffffff"
       id="path367" /></g><g
     transform="matrix(1.25,0,0,-1.25,-225.10625,2299.6462)"
     id="g375"><path
       d="m 840.68,1452.6 c 0,-3.523 -2.855,-6.379 -6.379,-6.379 -3.521,0 -6.377,2.856 -6.377,6.379 0,3.523 2.856,6.379 6.377,6.379 3.524,0 6.379,-2.856 6.379,-6.379"
       id="path371" /><path
       d="m 839.26,1452.6 c 0,-2.75 -2.229,-4.977 -4.979,-4.977 -2.748,0 -4.976,2.227 -4.976,4.977 0,2.75 2.228,4.977 4.976,4.977 2.75,0 4.979,-2.227 4.979,-4.977"
       style="fill:#ffffff"
       id="path373" /></g><text
     x="577.01434"
     y="147.814"
     style="font-size:16px;line-height:100%;font-family:'Liberation Sans';letter-spacing:0px;word-spacing:0px;fill:#000000;stroke-width:0"
     xml:space="preserve"
     id="text381"><tspan
       x="577.01434"
       y="147.814"
       id="tspan379">Hospital Sant Joan Despi | TV3</tspan></text><text
     x="459.25449"
     y="92.008751"
     style="font-size:16px;line-height:100%;font-family:'Liberation Sans';text-align:center;letter-spacing:0px;word-spacing:0px;text-anchor:middle;fill:#000000;stroke-width:0"
     xml:space="preserve"
     id="text385"><tspan
       x="459.25449"
       y="92.008751"
       id="tspan383">Ramba de Sant Just</tspan></text><text
     x="412.19968"
     y="137.99428"
     style="font-size:16px;line-height:100%;font-family:'Liberation Sans';text-align:center;letter-spacing:0px;word-spacing:0px;text-anchor:middle;fill:#000000;stroke-width:0"
     xml:space="preserve"
     id="text389"><tspan
       x="412.19968"
       y="137.99428"
       id="tspan387">Walden</tspan></text><text
     x="332.2103"
     y="137.43265"
     style="font-size:16px;line-height:100%;font-family:'Liberation Sans';text-align:center;letter-spacing:0px;word-spacing:0px;text-anchor:middle;fill:#000000;stroke-width:0"
     xml:space="preserve"
     id="text393"><tspan
       x="332.2103"
       y="137.43265"
       id="tspan391">Torreblanca</tspan></text><text
     x="271.04639"
     y="115.09921"
     style="font-weight:bold;font-size:16px;line-height:100%;font-family:'Liberation Sans';text-align:end;letter-spacing:0px;word-spacing:0px;text-anchor:end;fill:#000000;stroke-width:0"
     xml:space="preserve"
     id="text397"><tspan
       x="271.04639"
       y="115.09921"
       id="tspan395">Sant Feliu | Consell Comarcal</tspan></text><text
     x="448.09698"
     y="197.97096"
     style="font-size:16px;line-height:100%;font-family:'Liberation Sans';text-align:end;letter-spacing:0px;word-spacing:0px;text-anchor:end;fill:#000000;stroke-width:0"
     xml:space="preserve"
     id="text401"><tspan
       x="448.09698"
       y="197.97096"
       id="tspan399">Centre Miquel Mart i Pol</tspan></text><text
     x="311.33551"
     y="157.48695"
     style="font-size:42.667px;line-height:100%;font-family:'Liberation Sans';letter-spacing:0px;word-spacing:0px;fill:none;stroke:#000000;stroke-width:1px"
     xml:space="preserve"
     id="text405"><tspan
       x="311.33551"
       y="157.48695"
       id="tspan403" /></text><text
     x="381.61887"
     y="314.24133"
     style="font-size:16px;line-height:100%;font-family:'Liberation Sans';text-align:end;letter-spacing:0px;word-spacing:0px;text-anchor:end;fill:#000000;stroke-width:0"
     xml:space="preserve"
     id="text409"><tspan
       x="381.61887"
       y="314.24133"
       id="tspan407">Fontsanto-Fatj</tspan></text><text
     x="390.83276"
     y="261.54965"
     style="font-weight:bold;font-size:16px;line-height:100%;font-family:'Liberation Sans';text-align:end;letter-spacing:0px;word-spacing:0px;text-anchor:end;fill:#000000;stroke-width:0"
     xml:space="preserve"
     id="text413"><tspan
       x="390.83276"
       y="261.54965"
       id="tspan411">Bon Viatge</tspan></text><text
     x="381.51218"
     y="356.9321"
     style="font-size:16px;line-height:100%;font-family:'Liberation Sans';text-align:end;letter-spacing:0px;word-spacing:0px;text-anchor:end;fill:#000000;stroke-width:0"
     xml:space="preserve"
     id="text417"><tspan
       x="381.51218"
       y="356.9321"
       id="tspan415">Les Aiges</tspan></text><text
     x="382.45084"
     y="421.71115"
     style="font-size:16px;line-height:100%;font-family:'Liberation Sans';text-align:end;letter-spacing:0px;word-spacing:0px;text-anchor:end;fill:#000000;stroke-width:0"
     xml:space="preserve"
     id="text421"><tspan
       x="382.45084"
       y="421.71115"
       id="tspan419">Cornell Centre</tspan></text><text
     x="649.13019"
     y="358.19177"
     style="font-size:16px;line-height:100%;font-family:'Liberation Sans';text-align:end;letter-spacing:0px;word-spacing:0px;text-anchor:end;fill:#000000;stroke-width:0"
     xml:space="preserve"
     id="text425"><tspan
       x="649.13019"
       y="358.19177"
       id="tspan423">Can Clota</tspan></text><text
     x="694.19073"
     y="401.25601"
     style="font-size:16px;line-height:100%;font-family:'Liberation Sans';text-align:end;letter-spacing:0px;word-spacing:0px;text-anchor:end;fill:#000000;stroke-width:0"
     xml:space="preserve"
     id="text429"><tspan
       x="694.19073"
       y="401.25601"
       id="tspan427">Ca n'Oliveres</tspan></text><text
     x="736.57452"
     y="445.28134"
     style="font-size:16px;line-height:100%;font-family:'Liberation Sans';text-align:end;letter-spacing:0px;word-spacing:0px;text-anchor:end;fill:#000000;stroke-width:0"
     xml:space="preserve"
     id="text433"><tspan
       x="736.57452"
       y="445.28134"
       id="tspan431">Can Rigal</tspan></text><text
     x="1060.3477"
     y="358.98679"
     style="font-size:16px;line-height:100%;font-family:'Liberation Sans';letter-spacing:0px;word-spacing:0px;fill:#000000;stroke-width:0"
     xml:space="preserve"
     id="text437"><tspan
       x="1060.3477"
       y="358.98679"
       id="tspan435">Palau Reial</tspan></text><text
     x="1099.3629"
     y="398.01077"
     style="font-size:16px;line-height:100%;font-family:'Liberation Sans';letter-spacing:0px;word-spacing:0px;fill:#000000;stroke-width:0"
     xml:space="preserve"
     id="text441"><tspan
       x="1099.3629"
       y="398.01077"
       id="tspan439">Pius XII</tspan></text><text
     x="1144.5221"
     y="443.2139"
     style="font-size:16px;line-height:100%;font-family:'Liberation Sans';letter-spacing:0px;word-spacing:0px;fill:#000000;stroke-width:0"
     xml:space="preserve"
     id="text445"><tspan
       x="1144.5221"
       y="443.2139"
       id="tspan443">Maria Cristina</tspan></text><text
     x="1188.8699"
     y="487.55276"
     style="font-size:16px;line-height:100%;font-family:'Liberation Sans';letter-spacing:0px;word-spacing:0px;fill:#000000;stroke-width:0"
     xml:space="preserve"
     id="text449"><tspan
       x="1188.8699"
       y="487.55276"
       id="tspan447">Numncia</tspan></text><text
     x="1236.2528"
     y="534.9798"
     style="font-size:16px;line-height:100%;font-family:'Liberation Sans';letter-spacing:0px;word-spacing:0px;fill:#000000;stroke-width:0"
     xml:space="preserve"
     id="text453"><tspan
       x="1236.2528"
       y="534.9798"
       id="tspan451">L'Illa</tspan></text><text
     x="1286.3246"
     y="584.72528"
     style="font-weight:bold;font-size:16px;line-height:100%;font-family:'Liberation Sans';letter-spacing:0px;word-spacing:0px;fill:#000000;stroke-width:0"
     xml:space="preserve"
     id="text457"><tspan
       x="1286.3246"
       y="584.72528"
       id="tspan455">Francesc Maci</tspan></text><text
     x="434.37912"
     y="261.2554"
     style="font-size:16px;line-height:100%;font-family:'Liberation Sans';letter-spacing:0px;word-spacing:0px;fill:#000000;stroke-width:0"
     xml:space="preserve"
     id="text461"><tspan
       x="434.37912"
       y="261.2554"
       id="tspan459">La Fonsanta</tspan></text><text
     x="492.50644"
     y="362.25839"
     style="font-size:16px;line-height:100%;font-family:'Liberation Sans';letter-spacing:0px;word-spacing:0px;fill:#000000;stroke-width:0"
     xml:space="preserve"
     id="text465"><tspan
       x="492.50644"
       y="362.25839"
       id="tspan463">El Pedr</tspan></text><text
     x="448.73929"
     y="403.26245"
     style="font-size:16px;line-height:100%;font-family:'Liberation Sans';letter-spacing:0px;word-spacing:0px;fill:#000000;stroke-width:0"
     xml:space="preserve"
     id="text469"><tspan
       x="448.73929"
       y="403.26245"
       id="tspan467">Ignasi Iglsias</tspan></text><text
     x="646.94586"
     y="308.4162"
     style="font-size:16px;line-height:100%;font-family:'Liberation Sans';letter-spacing:0px;word-spacing:0px;fill:#000000;stroke-width:0"
     xml:space="preserve"
     id="text473"><tspan
       x="646.94586"
       y="308.4162"
       id="tspan471">Pont d'Esplugues</tspan></text><text
     x="514.9704"
     y="195.09378"
     style="font-weight:bold;font-size:16px;line-height:100%;font-family:'Liberation Sans';letter-spacing:0px;word-spacing:0px;fill:#000000;stroke-width:0"
     xml:space="preserve"
     id="text479"><tspan
       x="514.9704"
       y="195.09378"
       id="tspan475">Llevant |</tspan><tspan
       x="514.9704"
       y="211.09378"
       id="tspan477">Les Planes</tspan></text><text
     x="918.086"
     y="423.05759"
     style="font-size:16px;line-height:100%;font-family:'Liberation Sans';letter-spacing:0px;word-spacing:0px;fill:#000000;stroke-width:0"
     xml:space="preserve"
     id="text483"><tspan
       x="918.086"
       y="423.05759"
       id="tspan481">Avinguda de Xile</tspan></text><text
     x="598.74786"
     y="287.82101"
     style="font-size:16px;line-height:100%;font-family:'Liberation Sans';text-align:center;letter-spacing:0px;word-spacing:0px;text-anchor:middle;fill:#000000;stroke-width:0"
     xml:space="preserve"
     id="text487"><tspan
       x="598.74786"
       y="287.82101"
       style="text-align:center;text-anchor:middle;stroke-width:0"
       id="tspan485">La Sardana</tspan></text><text
     x="522.59949"
     y="327.34735"
     style="font-size:16px;line-height:100%;font-family:'Liberation Sans';letter-spacing:0px;word-spacing:0px;fill:#000000;stroke-width:0"
     xml:space="preserve"
     id="text491"><tspan
       x="522.59949"
       y="327.34735"
       style="stroke-width:0"
       id="tspan489">Montesa</tspan></text><text
     x="924.67072"
     y="309.20264"
     style="font-size:16px;line-height:100%;font-family:'Liberation Sans';letter-spacing:0px;word-spacing:0px;fill:#000000;stroke-width:0"
     xml:space="preserve"
     id="text495"><tspan
       x="924.67072"
       y="309.20264"
       style="stroke-width:0"
       id="tspan493">Zona Universitria</tspan></text><text
     x="773.16577"
     y="505.14575"
     style="font-size:16px;line-height:100%;font-family:'Liberation Sans';letter-spacing:0px;word-spacing:0px;fill:#000000;stroke-width:0"
     xml:space="preserve"
     id="text495-3"><tspan
       x="773.16577"
       y="505.14575"
       style="stroke-width:0"
       id="tspan493-6">Ernest Lluch</tspan></text></svg>
